<svg width="600" height="620" viewBox="0 0 600 620" fill="none" xmlns="http://www.w3.org/2000/svg">
<rect y="19.6399" width="600" height="600" rx="75" fill="#E3CBAE"/>
<path d="M125.827 490.899L194.373 334.179L296.265 476.38L125.827 490.899Z" fill="#69492F"/>
<ellipse cx="436.562" cy="119.478" rx="40.4116" ry="39.4207" transform="rotate(35.55 436.562 119.478)" fill="#C89975"/>
<ellipse cx="463.917" cy="272.107" rx="40.4116" ry="39.4207" transform="rotate(35.55 463.917 272.107)" fill="#C89975"/>
<ellipse cx="311.879" cy="293.955" rx="40.4116" ry="39.4207" transform="rotate(35.55 311.879 293.955)" fill="#C89975"/>
<ellipse cx="284.177" cy="143.663" rx="40.4116" ry="39.4207" transform="rotate(35.55 284.177 143.663)" fill="#C89975"/>
<path d="M427.733 269.429C429.138 261.734 404.507 236.925 370.499 212.133C336.491 187.341 305.332 171.48 298.429 175.167L298.205 175.004L321.133 143.584C316.664 149.709 342.087 175.848 377.916 201.967C413.746 228.087 446.415 244.297 450.884 238.172L427.956 269.592L427.733 269.429Z" fill="#C89975"/>
<path d="M428.999 155.083C423.056 154.669 401.414 178.093 378.987 209.476C356.561 240.858 341.412 268.919 343.727 274.409L343.578 274.617L320.782 258.326C325.226 261.502 347.983 237.27 371.612 204.205C395.24 171.14 410.793 141.762 406.349 138.587L429.146 154.877L428.999 155.083Z" fill="#C89975"/>
<path d="M244.68 152.567C246.968 161.553 252.383 169.868 260.605 175.743C275.167 186.147 294.113 185.737 307.575 176.033C320.387 180.08 342.713 192.66 366.811 209.935C349.558 233.439 333.33 251.576 325.061 256.964C308.368 250.481 289.001 255.565 278.354 270.466C265.698 288.181 270.159 313.059 288.319 326.034C306.479 339.009 331.461 335.167 344.118 317.452C354.319 303.175 353.397 284.247 343.149 270.645C345.167 261.423 357.202 239.802 374.202 215.342C398.512 233.488 417.397 251.246 424.302 261.873C420.55 277.238 426.417 294.214 440.357 304.174C450.799 311.634 463.495 313.532 474.808 310.433C474.933 313.153 475 315.889 475 318.64C475 415.29 396.65 493.64 300 493.64C203.35 493.64 125 415.29 125 318.64C125 241.323 175.141 175.719 244.68 152.567ZM403.301 177.369C423.601 192.239 440.579 211.376 452.908 233.463C448.717 234.476 444.695 236.165 441.024 238.507C428.709 235.068 406.12 222.545 381.541 205.043C389.167 194.589 396.619 185.154 403.301 177.369ZM323.601 145.221C348.878 148.629 372.442 157.432 393.099 170.435C387.934 179.202 381.489 189.198 374.157 199.679C349.294 181.247 329.904 163.097 322.851 152.282C323.316 149.948 323.566 147.585 323.601 145.221Z" fill="#69492F"/>
</svg>
